<?xml version="1.0" encoding="utf-8"?>
<!-- Generator: Adobe Illustrator 25.4.1, SVG Export Plug-In . SVG Version: 6.00 Build 0)  -->
<svg version="1.1" id="Layer_1" xmlns="http://www.w3.org/2000/svg" xmlns:xlink="http://www.w3.org/1999/xlink" x="0px" y="0px"
	 viewBox="0 0 450.4 81" style="enable-background:new 0 0 450.4 81;" xml:space="preserve">
<style type="text/css">
	.st0{fill:#FFFFFF;}
	.st1{clip-path:url(#SVGID_00000039109060636001414570000016735036755996409240_);}
	.st2{fill:url(#SVGID_00000074408311838192292270000009651647632658440383_);}
	.st3{fill:none;}
</style>
<polygon class="st0" points="81.8,16.8 68,51.5 67.1,51.5 54.3,16.8 43.1,16.8 30.3,51.7 29.7,51.7 15.6,16.8 4.5,16.8 22,60.2 
	37.8,60.2 48.7,30.7 59.6,60.2 75.4,60.2 92.9,16.8 "/>
<polygon class="st0" points="127.1,16.8 110,16.8 86.7,60.2 99.3,60.2 118.4,24.9 118.9,24.9 137.7,60.2 150.3,60.2 "/>
<polygon class="st0" points="153.2,16.8 167.9,36.4 182.6,16.8 194.9,16.8 173.2,45.6 173.2,60.2 162.4,60.2 162.4,45.6 140.3,16.8 
	"/>
<path class="st0" d="M230.8,16.8c5.9,0,10.1,1.1,12.6,3.2s3.8,5.7,3.8,10.7v3c0,5.1-1.2,8.6-3.5,10.6c-2.3,2-6.4,3-12.3,3h-20v12.9
	h-10.8V16.8H230.8z M236.4,32.6v-0.9c0.1-1.3-0.3-2.6-1.2-3.6c-0.8-0.7-2.2-1-4.2-1h-19.6v9.8h19.8c1.4,0.1,2.8-0.2,4-1
	C236.1,35,236.6,33.8,236.4,32.6"/>
<rect x="318.5" y="16.8" class="st0" width="10.8" height="43.5"/>
<polygon class="st0" points="339.8,16.8 356,16.8 382.5,46.5 382.5,16.8 393.3,16.8 393.3,60.2 380.4,60.2 350.7,27.7 350.7,60.2 
	339.8,60.2 "/>
<polygon class="st0" points="450.4,16.8 450.4,25.6 431.4,25.6 431.4,60.2 420.5,60.2 420.5,25.6 401.5,25.6 401.5,16.8 "/>
<g>
	<defs>
		<path id="SVGID_1_" d="M274.2,48.7c-4.9-5.3-4.5-13.5,0.8-18.4s13.5-4.5,18.4,0.8c0.3,0.3,0.6,0.7,0.8,1l-3.8,7l6.3-7l-1.3,2.5
			c2,4.8,0.9,10.3-2.8,14l-7,8.9l3.5-6.4C284.1,53.6,278.1,52.6,274.2,48.7 M283.4,14.9c-8.9,0-17.1,4.9-21.4,12.8l-0.1,0.2
			l-20.8,38.1l21.4-29.2l0,0l2.5-3.5l-5.7,10.3c0.9,5,3.2,9.6,6.8,13.1c0.2,0.2,0.4,0.4,0.6,0.6l-7.6,14.2l10.3-12l0,0l6-6.8
			l-4.4,7.9c11.7,6.9,26.7,2.9,33.6-8.8s2.9-26.7-8.8-33.6C292.1,16.1,287.8,15,283.4,14.9L283.4,14.9z"/>
	</defs>
	<clipPath id="SVGID_00000034085221854551281250000015699867598580727730_">
		<use xlink:href="#SVGID_1_"  style="overflow:visible;"/>
	</clipPath>
	<g style="clip-path:url(#SVGID_00000034085221854551281250000015699867598580727730_);">
		
			<linearGradient id="SVGID_00000033368813030637240380000001943979474895839636_" gradientUnits="userSpaceOnUse" x1="-206.8307" y1="14.9051" x2="-205.8307" y2="14.9051" gradientTransform="matrix(9.0019 51.0524 51.0524 -9.0019 1372.1799 10711.4209)">
			<stop  offset="0" style="stop-color:#A103CA"/>
			<stop  offset="0.49" style="stop-color:#603CB9"/>
			<stop  offset="1" style="stop-color:#1596AC"/>
		</linearGradient>
		<polygon style="fill:url(#SVGID_00000033368813030637240380000001943979474895839636_);" points="308.2,3.1 320,69.8 243.2,83.4 
			231.4,16.7 		"/>
	</g>
</g>
<rect x="-52" y="-207" class="st3" width="792" height="612"/>
</svg>
