<svg xmlns="http://www.w3.org/2000/svg" viewBox="0 0 1608.81 204.03"><defs><style>.cls-1,.cls-2{fill:#fff;}.cls-2{fill-rule:evenodd;}</style></defs><g id="Layer_2" data-name="Layer 2"><g id="Layer_1-2" data-name="Layer 1"><polyline class="cls-1" points="40.39 6.54 91.17 132.68 93.42 132.68 139.46 6.54 179.85 6.54 226.11 132 229.27 132 278.91 6.54 319.31 6.54 256.12 163.37 199.03 163.37 159.77 56.86 120.5 163.37 63.41 163.37 0 6.54"/><polygon class="cls-1" points="442.4 6.54 380.8 6.54 296.63 163.37 342.21 163.37 411.26 35.88 413.07 35.88 480.76 163.37 526.35 163.37 442.4 6.54"/><path class="cls-1" d="M536.67,6.54l53,70.86,53-70.86H687l-78.07,104v52.88h-39V110.49L490,6.54Z"/><path class="cls-1" d="M816.54,6.54q31.82,0,45.58,11.53t13.77,38.67V67.59q0,27.36-12.53,38.33t-44.34,11H746.81v46.48h-39V6.54Zm20.31,57V60.35c0-6.06-1.43-10.29-4.29-12.72S824.67,44,817.44,44H746.81V79.43h71.54q10.15,0,14.33-3.52T836.85,63.53Z"/><path class="cls-1" d="M1133,163.37V6.54h39V163.37Z"/><path class="cls-1" d="M1210,6.54h58.31l95.59,107.19V6.54h39V163.37h-46.64L1249.07,46V163.37h-39Z"/><path class="cls-1" d="M1608.81,6.54V38.36h-68.59v125h-39v-125h-68.6V6.54Z"/><path class="cls-2" d="M1069,25.88a88.35,88.35,0,0,1,0,124.94c-29.13,29.12-73.28,34.25-107.17,14.21l15.7-28.65L956,160.83h0L918.81,204l27.48-51c-.76-.71-1.51-1.43-2.25-2.17a87.9,87.9,0,0,1-24.59-47.43l20.67-37.22L931,78.62v0L853.73,183.93,928.64,46.56,929,46a88.42,88.42,0,0,1,140-20.12Zm-23.55,36a48.86,48.86,0,0,0-5.67-6.73,47,47,0,1,0-13,75.7l-12.45,22.93,25.45-32.14a46.26,46.26,0,0,0,10-50.56l4.84-9.39L1031.81,87Z"/></g></g></svg>