<svg width="112" height="123" viewBox="0 0 112 123" fill="none" xmlns="http://www.w3.org/2000/svg">
<path d="M46.8302 20.1029C45.3989 19.0674 43.6934 18.3365 42.0489 17.6665C41.8052 17.5752 41.318 18.1843 41.6225 18.3061C43.2975 18.9761 44.8202 19.8288 46.4039 20.6511C46.5866 20.7424 47.013 20.2552 46.8302 20.1029Z" fill="white"/>
<path d="M39.3374 26.1022C40.0074 26.3154 40.1596 28.7213 40.3119 29.2695C40.4033 29.574 40.9515 29.0563 40.8906 28.7822C40.6165 27.6554 40.4337 26.5286 40.4337 25.3713C40.4337 25.2495 40.3424 25.1581 40.2206 25.1886C39.8856 25.1886 39.5506 25.219 39.2155 25.3104C38.4542 24.884 38.2105 24.3358 38.4846 23.6049C38.6369 22.9045 39.0937 21.869 39.7333 21.5036C41.5301 20.5595 41.0733 23.6963 40.9819 24.6404C40.921 25.1277 41.6519 24.4881 41.7128 24.3054C41.9869 23.4527 42.2915 20.6508 41.1342 20.194C40.1901 19.8285 38.8501 21.4731 38.4237 22.0822C37.8451 22.9045 36.9619 24.9145 37.6928 25.889C38.2105 26.5286 38.7587 25.9195 39.3374 26.1022Z" fill="white"/>
<path d="M29.3485 3.99213C29.5617 4.41849 30.2317 3.87031 30.1403 3.53531C29.9271 2.80439 29.5921 2.10394 29.2876 1.40348C29.1048 0.946659 28.4044 1.55575 28.5566 1.95166C28.8003 2.59121 29.0135 3.32212 29.3485 3.99213Z" fill="white"/>
<path d="M30.2324 2.80437C30.4455 3.16983 30.5674 3.59619 30.811 3.93119C31.0242 4.23574 31.5115 3.87028 31.4505 3.56574C31.2983 2.74346 30.6892 1.92118 30.2324 1.25118C29.9887 0.885725 29.3492 1.43391 29.5624 1.73846C29.806 2.07346 30.0192 2.43891 30.2324 2.80437Z" fill="white"/>
<path d="M30.262 5.24066C30.5057 5.33202 30.7798 5.39293 31.0234 5.4843C31.2975 5.57566 31.5107 5.69748 31.7848 5.54521C31.998 5.45384 32.2111 5.2102 32.1807 4.96657C32.1807 4.93611 32.1807 4.90566 32.1807 4.8752C32.1502 4.8143 32.1198 4.78384 32.0893 4.78384C31.663 4.66202 31.267 4.50975 30.8407 4.38793C30.5361 4.29656 29.8966 5.11884 30.262 5.24066Z" fill="white"/>
<path d="M43.4791 55.9177C44.0882 55.5218 44.7886 54.7604 44.8191 53.999C44.8496 53.5727 44.1491 54.2731 44.1186 54.4254C43.9359 54.9431 43.7227 55.3086 43.1441 55.4609C42.6568 55.5827 42.1391 55.4913 41.6823 55.2781C41.3777 55.1259 40.7686 55.9481 40.9818 56.0395C41.8041 56.4354 42.6873 56.405 43.4791 55.9177Z" fill="white"/>
<path d="M45.4888 54.5775C45.1538 54.608 44.8492 55.0343 44.7578 55.3084C44.4533 56.3134 43.3265 56.7093 42.3824 56.618C42.1083 56.5875 41.5906 57.2575 41.9256 57.3184C43.5701 57.5316 45.0929 56.5571 45.7629 55.0953C45.8847 54.8212 45.8238 54.5471 45.4888 54.5775Z" fill="white"/>
<path d="M28.0689 42.2738C30.2617 40.4465 28.6476 37.462 27.0335 35.8479C24.6884 33.4724 21.4298 32.2847 18.9325 30.1529C18.5975 29.8483 17.9884 30.5488 18.3234 30.8229C21.2471 33.3811 25.9066 34.782 27.7644 38.4061C28.6171 40.0202 28.2516 41.817 26.2416 42.152C25.0235 42.3652 23.6834 42.152 22.4957 41.817C20.638 41.2993 15.9175 38.9238 17.5316 36.3352C17.8361 35.8783 17.2575 35.6043 16.9225 35.9697C12.9329 40.4466 24.5971 45.2279 28.0689 42.2738Z" fill="white"/>
<path d="M29.4706 42.3347C25.6942 45.7761 20.4255 44.7102 16.2532 42.7001C16.0096 42.5783 15.4919 43.2483 15.7964 43.4006C20.3037 45.6238 25.7856 46.4765 29.6838 42.6392C29.8969 42.4261 29.7751 42.0911 29.4706 42.3347Z" fill="white"/>
<path d="M14.9734 40.1113C13.7553 42.7304 12.0498 46.4459 13.8466 49.1868C13.9684 49.4 14.4557 48.8213 14.3948 48.6386C13.4812 45.4713 14.0903 43.0045 15.3694 40.0199C15.5521 39.6545 15.0648 39.8981 14.9734 40.1113Z" fill="white"/>
<path d="M40.6768 90.3616C41.7732 95.4171 43.0523 100.686 46.1587 104.949C46.9505 106.015 47.8946 106.838 48.8996 107.721C49.4478 108.208 50.331 108.939 50.3919 109.7C50.4528 110.279 49.9351 110.919 49.8132 111.497C49.326 114.055 52.4628 114.756 54.3205 114.36C54.7773 114.269 55.2342 113.416 54.5642 113.294C52.8282 112.959 50.7269 113.05 51.4882 110.584C51.7319 109.822 51.8842 109.274 51.6101 108.482C51.2141 107.447 50.2701 106.716 49.4478 106.015C48.5646 105.254 47.8032 104.432 47.0723 103.548C43.8746 99.8635 42.7478 94.5035 41.6514 89.8744C41.4991 89.2348 40.555 89.8439 40.6768 90.3616Z" fill="white"/>
<path d="M110.967 119.842C110.267 118.745 109.566 117.619 108.866 116.522C108.348 115.73 107.891 114.969 106.947 114.634C106.033 114.33 105.028 114.512 104.115 114.299C103.018 114.025 102.074 113.477 101.13 112.898C97.2624 110.614 93.5774 108.208 89.9533 105.528C86.3901 102.879 82.7964 100.259 79.02 97.9144C75.7005 95.874 71.4064 93.5899 67.3864 93.8944C67.3559 93.8944 67.3559 93.8944 67.3254 93.8944C65.9854 92.7372 64.6759 91.7931 63.5186 90.3921C62.2091 88.839 60.8995 87.2858 59.4986 85.7935C56.7272 82.8394 53.6817 80.1594 50.5145 77.6316C49.8445 74.6166 47.2558 72.2411 45.0022 70.018C44.7585 69.7134 44.4844 69.3784 44.2713 69.0434C43.784 68.3125 43.449 67.8252 43.5403 66.9116C43.6012 66.4852 43.7535 66.0284 43.8753 65.602C46.4944 67.3684 48.9308 64.0793 49.6313 61.7952C49.8445 61.0947 49.9358 60.3943 49.7226 59.6938C49.5095 58.9325 49.1136 58.4756 48.9613 57.7143C51.0017 56.8615 53.1031 54.9429 52.8595 52.5674C52.8595 52.537 52.8595 52.5065 52.829 52.5065C52.8595 50.8924 52.6158 49.0347 52.0981 47.5729C51.6717 46.3242 50.8495 45.8979 49.6922 45.7456C49.6922 45.106 49.6617 44.0097 49.9054 43.9488C50.149 43.9183 50.7276 44.4665 50.9713 44.6188C51.2149 44.7406 51.489 44.8624 51.7326 44.9233C52.3417 45.7456 54.6563 46.1415 56.0572 45.6238C56.5749 45.441 57.3972 44.8624 57.7627 44.2228C57.9759 44.6188 57.8236 45.0451 57.5799 45.6542C57.0927 46.9942 56.3008 48.0906 55.6918 49.3392C54.8695 51.0142 54.6563 53.1461 55.1131 54.9429C55.1131 54.9734 55.1436 55.0038 55.1436 55.0038C54.8086 56.2829 54.6563 57.6229 54.7781 58.9325C54.7477 58.9629 54.7477 58.9934 54.7172 59.0238C53.2249 61.6125 53.6817 64.8102 55.5395 67.0639C56.6663 68.4648 58.1281 69.5611 59.3159 70.9011C60.8081 72.6066 61.5391 74.5252 62.1482 76.6571C62.0872 76.9921 62.1786 77.2662 62.6354 77.1443C65.4068 76.383 67.2341 72.8502 67.4777 70.1702C67.63 68.4343 66.8686 66.4852 66.0768 64.9929C65.5895 64.1098 65.0109 63.257 64.3104 62.4957C63.8841 62.0388 63.3054 61.6429 62.9095 61.1556C62.2395 60.3334 62.3309 59.6329 62.8182 58.7497C64.8282 54.9734 66.7163 50.7706 65.8941 46.4156C65.285 43.2483 63.3054 39.6851 59.9554 38.8628C59.9554 38.8628 59.9554 38.8628 59.925 38.8628C59.925 38.8019 59.9554 38.7715 59.9554 38.7106C59.6204 36.6396 58.1586 34.6905 56.6663 33.2592C54.9304 31.6146 53.4077 31.7973 51.2454 32.1628C50.6058 32.2542 49.9967 32.3151 49.3572 32.1933C48.8395 32.0714 48.4131 31.7669 47.8345 31.8278C47.2558 31.9192 46.9208 32.3151 46.5554 32.711C46.0072 33.2896 45.3981 33.4114 44.6367 33.8074C44.0885 34.1119 42.7485 34.8733 42.3526 35.6042C43.5099 37.5533 43.0835 39.8678 42.8703 41.9387C42.7181 41.8169 42.5658 41.6647 42.4135 41.5428C42.3222 41.4515 42.2003 41.3297 42.109 41.2383C42.1699 41.1774 42.2308 41.086 42.2308 41.0556C42.779 39.3501 42.8094 37.1878 41.5303 35.7869C40.1903 34.3251 38.2717 32.9851 36.5358 31.9496C36.8099 31.6755 37.0535 31.371 37.3276 31.0969C37.8758 30.4878 38.1803 30.1832 39.1244 30.6705C39.9467 31.1273 40.6167 31.9496 41.3476 32.5283C41.3781 32.5587 41.4085 32.5587 41.4694 32.5892C41.4999 32.6501 41.5608 32.6805 41.6826 32.6501C42.444 32.4673 43.0531 32.1933 43.6317 31.6755C44.2713 31.0664 44.9717 29.026 45.9767 29.1782C46.3422 29.2392 46.6163 28.9346 46.7076 28.5996C46.9817 27.351 47.2558 26.0414 47.2558 24.7623C48.1085 25.615 48.9917 26.4678 49.8749 27.2901C49.9358 27.351 49.9967 27.3814 50.0576 27.3814C50.0881 27.4119 50.1186 27.4728 50.149 27.5032C50.3317 27.686 50.7276 27.1987 50.7886 26.9551C50.9104 26.7419 50.9408 26.4678 50.7581 26.285C50.6667 26.1937 50.5754 26.1023 50.484 26.011C50.2099 25.4323 49.8749 24.8841 49.6313 24.336C49.2963 23.6355 48.9613 22.935 48.5958 22.265C49.6922 20.6509 50.2708 18.2755 49.9358 16.3264C49.6617 14.6818 47.134 13.9509 45.7331 13.4636C43.9667 12.8241 41.3476 12.0627 39.4594 12.4586C37.9976 12.7632 36.9926 14.3773 36.2921 15.6868C35.2871 15.2605 34.3126 14.895 33.3076 14.4991C32.9117 14.3468 32.333 14.9255 32.5767 15.3214C33.2162 16.3568 33.6121 17.4532 34.1908 18.4886C33.2467 19.3109 32.8508 20.4377 32.7898 21.7168C32.5767 22.5087 31.6326 23.0873 30.8103 23.0873C30.8712 22.9959 30.9017 22.9046 30.9017 22.8741C30.7798 20.1941 29.8662 17.3923 29.3485 14.7427C29.0744 13.2809 28.5566 11.6973 28.6785 10.205C28.8003 8.7127 29.9271 7.61633 29.8053 6.0936C29.7748 5.84996 29.1048 6.4286 29.1048 6.70269C29.1962 8.31679 27.7648 9.7177 27.7953 11.3927C27.7953 12.7632 28.1607 14.1641 28.4348 15.5345C28.7089 16.905 29.0135 18.3059 29.2876 19.6764C29.5007 20.7423 29.6226 21.8691 29.9271 22.935C29.4398 22.7828 28.983 22.5696 28.5566 22.2955C28.0085 21.9909 27.4907 21.6255 26.973 21.2905C27.0035 21.2296 27.0035 21.1991 27.0035 21.1382C26.8816 18.9455 26.7903 16.7527 26.7598 14.56C26.7598 12.55 27.0339 10.4182 26.8512 8.40815C26.8512 8.40815 26.8512 8.40816 26.8512 8.3777C27.4298 7.25088 28.3739 6.06314 28.7089 4.84496C28.8003 4.4795 28.8307 4.17496 28.7089 3.8095C28.4957 2.86541 28.2826 2.07358 28.1912 1.12949C28.1607 0.611758 27.4603 1.28176 27.3994 1.49494C27.0644 2.68268 27.5212 3.59632 27.5821 4.78405C27.643 5.97178 26.7294 7.31179 26.1507 8.40815C25.968 8.59088 25.8462 8.77361 25.8157 8.86497C25.7548 9.16952 25.7244 9.47407 25.6939 9.80907C25.6025 9.86998 25.4807 9.93089 25.3894 9.9918C25.1762 8.89543 24.5062 7.95134 23.7144 7.15951C25.1457 6.12406 26.3335 4.90587 26.8512 3.32222C27.0339 2.74358 26.3944 2.65222 26.0594 3.04813C24.4453 5.02769 22.7094 6.36769 20.5166 7.61633C18.5066 8.77361 16.5575 9.9918 14.7607 11.4232C11.2279 14.2555 8.33474 17.7882 6.59883 21.9909C6.50746 22.2041 6.53792 22.3259 6.59883 22.4782C6.99474 23.94 8.42611 26.1023 10.0098 27.4119C11.6238 28.7214 13.4816 29.361 15.3698 30.1528C15.248 31.7669 15.248 33.4114 14.9434 35.0255C14.5475 37.3401 13.4511 39.3197 12.2634 41.2992C8.45656 47.6947 4.92382 54.6993 3.15745 61.9779C2.1829 63.9879 1.96971 66.272 2.57881 68.4343C2.60926 68.5257 2.67017 68.5866 2.73108 68.5866C2.73108 68.7998 3.24881 68.5561 3.37063 68.3429C3.49245 68.1602 3.61427 67.9775 3.70563 67.7643C3.97973 68.1907 4.25382 68.5866 4.58882 68.952C4.98473 69.3784 5.472 69.9266 6.05064 70.0484C6.02019 70.2616 6.02019 70.5052 5.98973 70.7184C5.92883 70.8402 5.89837 70.9925 5.98973 71.1143C7.84747 73.1243 9.73566 75.0734 11.6238 77.0225C8.88293 76.6571 5.62428 77.5098 3.43154 78.0275C3.37063 78.0275 3.30972 78.0275 3.21836 78.0884C3.1879 78.1189 3.15745 78.1494 3.09654 78.1798C0.903804 79.9462 0.355619 82.8089 1.78699 85.2453C2.73108 86.8594 4.07109 88.2299 5.22837 89.6917C6.65974 91.4885 7.99974 93.3767 9.3702 95.2344C10.832 97.2749 12.2329 99.3458 13.6339 101.417C13.512 101.447 10.7102 104.706 9.46157 106.229C8.21292 107.782 6.90337 109.274 5.68519 110.858C4.86291 111.954 4.467 113.05 4.58882 114.421C4.74109 116.248 5.01518 118.167 5.44155 119.933C5.44155 119.964 5.472 119.994 5.472 119.994C5.472 120.025 5.50246 120.055 5.53291 120.055C5.59382 120.085 5.68518 120.085 5.77655 120.055C8.45656 119.964 11.1366 119.568 13.8166 119.598C15.857 119.629 17.7757 120.238 19.7552 120.329C19.8162 120.36 19.8771 120.36 19.938 120.329L19.9684 120.36C21.8566 121.03 23.7753 120.847 25.7548 120.695C26.6075 120.634 28.0694 120.451 28.1303 119.324C28.1303 119.141 27.5821 116.705 27.3994 115.609C27.2166 114.543 26.5771 112.807 27.9171 112.38C27.9476 112.38 28.0085 112.32 28.0998 112.259C28.8003 113.172 29.5921 114.025 30.4448 114.847C30.6885 115.091 31.3585 114.36 31.1148 114.086C29.0744 111.893 27.7039 109.396 26.638 106.624C26.6075 106.533 26.5466 106.503 26.4857 106.472C25.7244 106.381 24.9325 106.32 24.1712 106.411C24.1712 106.411 24.1712 106.411 24.1712 106.381C24.2625 105.102 25.633 103.823 26.3944 102.879C27.0339 102.087 27.7039 101.295 28.3739 100.534C29.4398 99.3154 30.6276 98.219 31.6935 97.0008C35.2871 100.747 38.6981 104.614 41.6522 108.909C43.114 111.01 44.5149 113.142 46.0376 115.182C47.5908 117.284 50.0272 120.36 50.6667 121.304C52.494 121.395 55.9049 122.095 57.519 121.243C58.6763 120.634 59.7422 121.639 60.9909 121.913C62.0263 122.126 63.0618 122.217 64.1277 122.156C66.2291 122.095 68.3305 121.821 70.4318 121.639C70.7973 121.608 71.8327 120.725 71.2541 120.36C60.93 114.33 52.8899 104.554 46.6163 94.2294C46.5858 94.1685 46.5554 94.1381 46.5249 94.1076C46.2813 93.6203 46.0376 93.1026 45.794 92.6153C51.5499 96.8485 58.1586 100.442 65.0109 102.239C65.0718 102.269 65.1327 102.269 65.2241 102.3C69.7923 105.376 74.665 107.934 79.9946 109.457C82.5528 110.188 85.1414 110.797 87.6692 111.619C90.4101 112.502 92.816 113.812 95.3133 115.213C96.2878 116.035 96.5924 117.497 97.6279 118.228C98.2065 118.654 98.9679 118.624 99.6683 118.654C101.008 118.745 102.013 119.172 103.11 119.933C105.211 121.425 107.769 122.613 110.114 120.969C110.358 120.999 111.18 120.207 110.967 119.842ZM47.9867 75.043C48.6567 76.0784 49.4181 77.9362 49.7226 78.6975C45.1849 81.0425 43.7535 83.9053 42.9312 87.5599C41.8044 86.2503 40.2817 85.2149 39.0331 84.0576C36.7794 81.9867 34.7694 79.6416 32.8812 77.2053C38.028 77.3271 42.8703 73.8552 45.3372 72.2716C45.6417 72.5457 46.129 72.8807 46.4335 73.1852C47.0122 73.7639 47.5604 74.373 47.9867 75.043ZM33.1248 62.587C33.0944 61.8257 33.0335 61.0338 33.0335 60.2725C33.003 59.2675 32.9726 58.2015 33.5208 57.3184C34.2212 56.1915 35.3176 55.2474 36.2312 54.2729C36.749 54.9429 37.2971 55.6129 37.8149 56.2829C36.0485 58.2015 34.5258 60.577 33.1553 62.8611C33.1248 62.7697 33.1248 62.6784 33.1248 62.587ZM32.4548 68.952C32.8812 67.3684 33.0639 65.7543 33.1248 64.1098C33.9776 62.8002 34.8608 61.5211 35.8049 60.2725C36.6271 59.2066 37.6017 58.1406 38.2717 56.9529C38.6981 57.5315 39.1244 58.1102 39.5508 58.7193C40.3731 59.8766 41.1344 61.0643 41.8653 62.3129C42.3831 63.2266 42.8094 64.2011 43.3576 65.0843C43.2053 65.2366 43.0531 65.3888 43.0226 65.5411C42.6267 66.9116 42.0785 68.0993 42.8399 69.3784C43.3881 70.3225 44.119 71.1143 44.8194 71.9366C40.769 74.1598 37.0535 76.718 32.2417 76.383C31.5717 75.4998 30.9321 74.6471 30.2621 73.7639C31.2367 72.3021 31.998 70.7184 32.4548 68.952ZM48.3522 62.4652C47.7735 63.927 46.2813 65.937 44.5149 64.7493C43.9667 62.7088 42.5962 60.7902 41.439 59.0238C40.099 56.9834 38.6371 55.0647 37.0535 53.2374C34.0689 49.7351 30.0794 45.0147 32.4244 40.1419C32.6071 40.4465 32.7594 40.751 32.9421 41.0251C33.8862 42.5783 34.8303 44.1619 36.2312 45.3801C36.6576 45.7456 37.2667 46.3242 37.9062 46.5679C37.9062 46.5679 37.9062 46.5679 37.9062 46.5983C39.5203 48.2429 41.104 49.7961 43.2053 50.8011C44.1799 51.2579 45.2763 51.5929 46.129 52.3238C46.799 52.9024 47.134 53.5724 47.3776 54.3338C47.0426 53.9379 46.7076 53.542 46.4335 53.0547C46.129 52.5674 45.3372 53.1461 45.459 53.6333C45.7026 54.547 46.2813 55.1256 46.8904 55.8261C47.5908 56.6179 47.6517 57.0443 47.6517 58.0493C47.6517 58.3538 47.6517 58.5975 47.7431 58.8715C47.8649 59.2675 48.139 59.5416 48.3217 59.8766C48.809 60.7902 48.7481 61.5516 48.3522 62.4652ZM59.0113 68.4952C56.6968 66.3939 54.0472 63.6225 55.0522 60.3638C55.2654 61.3079 55.6004 62.2216 56.0877 63.1047C57.4277 65.4802 59.9859 66.7289 61.4477 68.9825C62.4527 70.5357 62.94 72.3325 62.9095 74.1293C62.2395 71.9671 60.7472 70.0789 59.0113 68.4952ZM43.5708 35.4214C44.6672 34.6296 46.0072 34.5078 47.0426 33.5942C47.6517 33.0764 47.7735 33.3201 48.5958 33.5333C49.3876 33.716 50.1186 33.6246 50.9408 33.4724C52.1286 33.2592 53.0727 33.2287 53.9558 33.5333C54.1081 35.5433 53.164 36.8833 51.824 38.3756C51.7022 38.5278 51.3063 39.1065 51.7022 39.2283C52.0677 39.2892 52.4027 39.411 52.7377 39.5937C53.0727 40.3856 52.9204 40.7206 52.2199 40.5987C51.1845 40.8728 50.0576 40.0201 50.3013 38.8324C50.4231 38.2537 49.6008 38.7715 49.5095 39.1369C49.0526 41.1774 51.2758 42.1824 52.9508 41.2687C54.504 40.416 54.1386 39.0456 52.9204 38.2842C53.9254 37.1269 55.0218 35.6651 55.1436 34.1728C55.4177 34.386 55.7222 34.6296 56.0268 34.9342C57.3972 36.3046 58.5545 37.8274 59.1636 39.6851C59.194 39.746 59.2245 39.9592 59.4986 40.0201C62.6963 40.9033 64.1886 44.4056 64.6454 47.3901C65.3459 51.8061 63.0618 55.5215 61.2954 59.3588C60.5341 60.9729 61.0518 61.7343 62.3004 62.8307C63.7622 64.1402 64.8891 65.7848 65.5591 67.6425C66.1377 69.2566 66.3204 70.6575 65.7113 72.2716C65.2241 73.5507 64.4932 74.8298 63.3968 75.6521C63.9145 73.7639 63.945 71.7843 63.3663 69.8961C62.6354 67.5207 61.0518 66.1198 59.3159 64.4752C54.8999 60.3334 55.5699 54.3947 58.5545 49.6133C59.0418 48.852 58.0672 49.4915 57.8845 49.7961C57.2449 50.7097 56.6663 51.7147 56.2095 52.7502C56.2399 51.9583 56.2399 51.1665 56.4227 50.3747C56.7272 49.0042 57.5799 47.8774 58.1281 46.5983C58.7068 45.2888 59.4681 43.8574 57.9759 43.0656C57.6104 42.8828 57.1536 43.431 57.0622 43.766C56.7577 44.8928 55.5699 45.0147 54.4431 44.8015C54.7477 44.6492 55.0522 44.436 55.3568 44.1924C55.5699 44.0097 56.1181 42.8524 55.4481 43.2483C54.4127 43.8269 53.2858 44.0706 52.159 43.5224C51.489 43.1874 50.9104 42.5478 50.0881 42.9438C48.809 43.5528 48.9004 44.6492 48.9308 45.7456C47.1035 45.4106 45.4894 44.1619 44.0581 42.9742C43.9363 42.8828 43.8753 42.8219 43.7535 42.7306C43.7535 42.6087 43.784 42.5478 43.784 42.4869C43.8754 40.081 44.8194 37.5837 43.5708 35.4214ZM41.5912 38.3756C41.774 39.1978 41.6217 39.9592 41.5303 40.751C41.104 40.3246 40.6776 39.8678 40.2512 39.411C40.1599 39.3196 40.099 39.2283 40.0076 39.1065C39.9771 39.076 39.9467 39.0456 39.8858 39.0456C39.7031 38.8628 39.5203 38.6801 39.3376 38.4974C38.2108 37.401 37.1144 36.2742 36.0485 35.1169C35.4699 34.4774 32.5158 31.9192 31.9067 30.4269C32.0285 29.8482 32.4853 29.3914 32.5462 28.7823C32.5767 28.5387 32.5158 28.2951 32.4853 28.0514C32.3635 27.2596 32.4853 26.7723 33.003 26.1328C33.338 26.4982 33.673 26.8637 33.9776 27.2596C34.9826 28.5387 36.1399 29.9701 36.2008 31.6451C36.079 31.7973 35.9571 31.9496 35.8353 32.0714C35.7135 32.1933 35.683 32.3151 35.683 32.4064C35.683 32.4673 35.683 32.5283 35.7439 32.5892C37.2362 33.5942 38.5762 34.7819 39.9162 35.9392C40.7081 36.6396 41.3781 37.3401 41.5912 38.3756ZM40.6776 13.6768C42.2612 13.8291 43.8449 14.225 45.3372 14.8036C46.5554 15.2909 48.6263 15.9 48.8395 17.3314C49.0831 19.0673 48.3826 20.7423 47.804 22.3259C47.7735 22.3868 47.7735 22.4478 47.7735 22.5087C47.7735 22.6305 47.804 22.6914 47.8649 22.7523C48.1085 23.2396 48.3217 23.6964 48.5654 24.1837C46.6772 22.3259 44.6976 20.4987 42.5353 19.0368C40.8299 17.8796 38.9721 16.9355 37.0535 16.1132C37.8149 14.6514 38.8199 13.4941 40.6776 13.6768ZM32.9117 22.9959C33.0944 24.1532 33.6426 25.341 34.9521 25.0973C35.1349 25.0669 35.7439 24.5491 35.4394 24.3664C34.678 23.8791 34.1603 23.5441 33.9471 22.6C33.7035 21.5646 33.7035 19.7982 34.678 19.1282C34.7389 19.0977 34.7999 19.0064 34.8608 18.9455C35.0739 18.8236 35.2262 18.5496 35.1044 18.3668C34.7085 17.6664 34.4344 16.9355 34.1603 16.2046C36.9012 17.3314 39.6421 18.5191 42.0785 20.2855C43.8449 21.5646 45.4285 23.0873 46.9817 24.61C46.7685 24.7014 46.4944 24.945 46.464 25.1278C46.2813 26.2241 46.1594 27.3205 45.9463 28.4169C45.459 28.4778 45.0631 28.7519 44.7281 29.1478C43.7535 30.3051 43.6013 31.5233 42.0785 32.0714C42.0785 32.041 42.0481 31.9801 42.0176 31.9496C41.1953 31.2187 39.8249 29.5437 38.6067 29.6351C37.9367 29.696 37.2971 30.3051 36.7794 30.9446C36.5967 29.4828 35.683 28.2646 34.8303 27.0769C34.2212 26.2546 33.5208 25.4628 32.7594 24.7928C32.7289 24.7623 32.6985 24.7319 32.668 24.7014C32.333 24.3969 31.9676 24.1228 31.6021 23.8487C32.0589 23.605 32.5158 23.3309 32.9117 22.9959ZM25.7853 15.3518C25.8157 17.1791 25.9071 19.0368 26.0289 20.8641C25.8157 20.7423 25.5721 20.6205 25.3285 20.4987C23.958 19.8896 22.4657 19.6764 21.3998 20.1941C20.3339 20.7118 20.0598 21.0164 19.6334 21.3818C18.8721 21.3209 18.0802 21.2296 17.3189 21.0468C16.6793 20.8946 16.0398 20.6814 15.4611 20.4073C18.263 16.6309 21.7348 13.5245 25.7244 11.0273C25.6939 12.4891 25.7548 13.9509 25.7853 15.3518ZM17.3493 11.1186C18.9634 9.9918 21.1866 9.01725 23.1053 7.76861C23.5316 8.16452 23.8971 8.59088 24.2321 9.07816C24.5366 9.53498 24.6889 10.0223 24.8107 10.54C20.9734 13.0982 17.5625 16.4786 14.913 20.255C12.2329 19.25 10.0098 20.1637 8.09111 21.4123C10.1316 17.2096 13.4816 13.7986 17.3493 11.1186ZM10.9843 26.9855C9.43111 25.7673 8.18247 24.0923 7.39065 22.2955C8.60883 21.5037 11.6543 20.0418 14.4866 20.9859C14.517 20.9859 17.1361 22.3259 18.5066 22.3564C17.3798 23.4223 16.3139 24.5187 14.852 25.0669C13.6339 25.5237 11.3498 25.5541 11.3193 23.7573C11.2888 22.6305 12.2329 22.1432 13.2379 22.4478C13.9384 22.6609 14.3343 23.27 14.913 23.6659C15.1566 23.8487 15.7657 23.1178 15.6439 22.8741C14.7911 21.4123 13.2075 20.8641 11.7457 21.8387C10.7407 22.5087 9.94884 24.2141 10.6188 25.341C11.5629 26.9246 13.8775 26.346 15.1566 25.6455C16.192 25.0669 17.0448 24.2446 17.8975 23.4528C16.8316 24.8537 16.1007 26.4982 15.7961 28.2951C15.7352 28.6605 15.6743 29.026 15.6439 29.3914C14.1211 28.5082 12.3852 28.1123 10.9843 26.9855ZM6.20292 68.8607C5.95928 68.6475 5.71564 68.4343 5.50246 68.1907C5.137 67.7948 4.83245 67.3684 4.55836 66.9116C5.77655 65.1148 7.17746 63.5616 8.7002 62.0084C7.63429 64.2316 6.81201 66.607 6.4161 69.013C6.32473 68.952 6.26383 68.8911 6.20292 68.8607ZM7.05565 70.8402C7.0861 70.7793 7.11656 70.7184 7.11656 70.688C7.66474 67.1857 8.45656 63.8966 10.0707 60.7293C10.162 60.5161 10.162 60.4247 10.0707 60.3638C10.0402 60.2116 9.88793 60.1507 9.6443 60.3334C7.3602 62.0693 5.472 64.4143 3.94927 66.8811C3.76654 67.0334 3.61427 67.2466 3.61427 67.4293C3.24881 65.5107 3.67518 63.7747 4.34518 61.917C4.37563 61.8256 4.37564 61.7343 4.37564 61.6734C5.71564 57.6838 7.14701 53.7856 8.82202 49.9788C8.85247 50.4052 8.94383 50.8315 9.12656 51.2579C9.85747 52.9938 11.8675 53.3288 13.5729 53.2983C18.598 53.1461 22.953 49.7961 27.2775 47.6338C27.5212 47.512 27.978 46.7201 27.4907 46.9029C23.7448 48.517 20.4862 51.1056 16.4966 52.1411C14.7302 52.5979 12.3852 52.9938 10.7102 52.0192C9.43111 51.2883 9.15702 50.0092 9.3702 48.7301C10.4057 46.4765 11.5325 44.2533 12.8116 42.0606C14.4257 39.2587 15.918 36.6092 16.1616 33.3201C16.2834 31.371 16.192 29.4219 16.527 27.4728C16.8925 25.4932 17.8366 23.7269 19.2375 22.3259C19.7248 21.7778 20.7907 21.0164 21.278 20.7727C22.6484 20.0723 24.8107 21.3514 25.8766 22.0518C27.1253 22.8741 28.3435 24.0009 29.9271 24.1837C30.1098 24.2141 30.323 24.1837 30.5667 24.1532C30.9321 24.3969 31.2976 24.671 31.663 24.9755C31.2367 25.1887 30.8407 25.4932 30.5667 25.8891C30.323 26.2241 30.2926 26.3764 30.1098 26.7723C29.7748 27.4423 29.8053 27.0769 29.2266 26.5287C27.8866 25.2191 26.6989 23.3614 24.7498 22.935C23.288 22.6 22.7094 23.2091 22.7398 24.6405C22.7703 26.4373 23.8057 28.3864 25.1153 29.5742C25.4807 29.8787 26.1203 29.1782 25.7853 28.8432C24.963 28.0819 24.4148 27.0464 23.9884 26.011C23.8666 25.7064 23.3489 24.0619 23.623 23.7878C23.9275 23.5137 25.0544 24.1532 25.3285 24.336C26.973 25.341 27.9476 27.5946 29.7139 28.3255C29.8662 28.3864 30.0489 28.3255 30.1707 28.2341C31.0844 27.4423 31.1148 26.1937 32.3939 25.7064C32.4244 25.7064 32.4244 25.676 32.4548 25.676C32.5462 25.7673 32.6071 25.8282 32.6985 25.9196C32.6985 25.9196 32.6985 25.9196 32.668 25.95C32.1198 26.62 31.5412 27.3814 31.5717 28.3255C31.5717 28.5996 31.7239 28.8737 31.6935 29.1478C31.6935 29.2391 31.663 29.3305 31.663 29.3914C31.5412 29.4523 31.4194 29.5742 31.328 29.696C30.2012 31.2796 31.7544 32.4674 32.7898 33.6551C34.4649 35.5128 36.1094 37.4924 37.9367 39.1978C38.7285 39.9287 39.5203 40.6901 40.3121 41.4515C40.9212 42.3651 41.5303 43.2178 42.3831 43.9792C43.5403 45.0147 44.8194 45.9283 46.2204 46.5679C47.8954 47.3292 50.1186 46.9942 50.7886 47.9079C51.8545 49.3392 51.6413 51.7756 51.8849 53.4811C51.9154 55.3388 50.2099 56.1002 48.8699 57.0443C48.7785 56.4352 48.5654 55.9479 48.2608 55.5215C48.3826 55.3693 48.5045 55.217 48.5045 55.1256C48.8395 52.8111 47.0731 51.1665 45.0935 50.3747C42.779 49.4306 40.9212 48.182 39.1244 46.5374C38.8199 46.2938 37.358 45.3497 35.9571 43.6747C34.8303 42.3347 33.9776 40.7815 33.0944 39.2892C31.5108 36.6092 29.9576 33.5942 27.2166 31.9496C27.2166 31.9496 27.2166 31.9192 27.1862 31.9192C27.1253 31.8887 27.0948 31.8583 27.0339 31.8583H27.0035C25.1457 31.036 23.5012 29.1782 22.9225 27.2596C22.8616 27.0464 22.283 27.5641 22.3439 27.7773C22.9225 29.7873 24.5975 31.6451 26.4857 32.5283C29.1353 34.0814 30.6885 37.1574 32.2112 39.8374C32.0589 39.9287 31.8762 40.081 31.8153 40.2028C29.5007 44.5883 31.9067 49.0042 34.7085 52.5065C35.0435 52.9024 35.348 53.3288 35.683 53.7247C34.3126 55.0038 32.6071 56.6179 32.0894 58.3538C31.7848 59.4197 31.9067 60.6075 31.998 61.7038C32.1198 63.592 32.2112 65.4802 31.9676 67.3684C30.9626 74.6471 25.1457 79.2457 18.7807 82.078C18.7502 82.078 18.7198 82.1085 18.7198 82.1085C17.6843 81.1339 16.6489 80.1594 15.6439 79.1848C15.3393 78.8194 15.0043 78.4844 14.6389 78.2407C12.0502 75.7434 9.52248 73.3071 7.05565 70.8402ZM14.2734 102.269C15.187 103.64 16.1007 105.041 16.9839 106.442C18.1716 108.33 19.3289 110.218 20.4862 112.106C20.2121 112.594 19.9989 113.111 19.8771 113.629C19.0852 113.355 16.4966 113.233 15.0957 113.446C12.6593 112.076 9.76611 111.558 7.05565 111.132C7.48201 110.614 7.93883 110.096 8.3652 109.609C10.3143 107.203 12.507 104.858 14.2734 102.269ZM20.9125 118.319C20.9125 118.319 20.9125 118.289 20.9125 118.319C19.938 117.466 18.9634 116.614 18.0193 115.791C17.593 115.426 17.0752 115.06 16.588 114.634C16.7707 114.665 18.4152 114.725 19.1766 115C20.1512 115.335 20.4862 115.152 20.608 114.39C20.6993 113.842 20.7602 113.325 20.943 112.837C21.7957 114.299 22.618 115.822 23.5925 117.192C23.1053 117.314 22.6484 117.436 22.1916 117.619C21.7348 117.801 21.278 118.015 20.9125 118.319ZM6.62928 119.141C6.56837 117.619 6.32473 116.096 6.17246 114.573C6.0811 113.66 6.02019 112.807 6.44655 111.985C6.47701 111.985 6.50746 112.015 6.56837 112.015C8.15201 112.289 9.7052 112.594 11.2279 113.081C12.2939 113.416 13.6643 114.025 14.3648 114.543C15.187 115.182 16.253 116.157 17.0752 116.827C18.0498 117.619 19.0243 118.41 19.9989 119.172C18.2934 118.989 16.6184 118.563 14.852 118.563C12.1416 118.563 9.40066 119.02 6.62928 119.141ZM25.3589 107.904C26.1203 108.208 26.6685 109.974 27.0644 110.614C27.2776 110.979 27.5212 111.345 27.7648 111.68C27.0948 112.045 26.4248 112.959 26.303 113.446C26.0594 114.33 26.4857 115.395 26.7294 116.248C27.0035 117.253 27.3994 118.685 27.3689 119.202C27.3385 119.72 25.0848 119.72 24.628 119.781C23.4403 119.903 22.283 119.903 21.1562 119.598C21.278 118.806 22.8312 118.563 23.5012 118.35C24.0494 118.167 24.6889 117.984 25.0848 117.527C25.3285 117.284 21.3084 110.462 19.3289 107.355C17.258 104.097 15.1566 100.869 12.9029 97.7317C10.7102 94.6862 8.3652 91.7626 5.86791 88.9608C4.64973 87.5903 3.03563 86.2808 2.1829 84.6362C1.14744 82.6871 1.63472 80.3116 3.30972 78.8803C5.35019 78.4539 7.45156 78.1494 9.52247 78.058C11.3498 77.9666 12.6898 78.4539 14.0298 79.3676C18.5675 83.9053 23.1662 88.3821 27.7039 92.9199C26.2725 92.8285 24.963 92.1585 23.5925 91.4581C21.8566 90.5444 20.0902 89.6917 18.263 88.9303C16.6793 88.2603 9.3702 85.7021 7.57338 85.093C7.39065 85.0321 6.96428 85.5803 7.17746 85.6412C9.00475 86.3417 10.8016 87.0726 12.5984 87.8035C14.3343 91.0012 15.7657 94.0467 16.1007 97.7622C16.1007 97.8231 16.1311 97.884 16.1311 97.9144C16.1311 97.9449 16.1007 98.0058 16.1311 98.0363C16.1616 98.0972 16.1616 98.1581 16.1921 98.1885C16.1921 98.219 16.2225 98.2799 16.2225 98.3104C17.3798 101.66 19.8162 106.929 23.4098 107.721C24.0798 107.873 24.7803 107.69 25.3589 107.904ZM17.1666 96.544C16.9534 94.0467 16.3443 91.0317 14.913 88.8085C16.3443 89.4481 17.7452 90.0876 19.1462 90.7881C19.603 91.0012 20.0598 91.2753 20.5775 91.5799C19.4202 93.2244 18.2934 94.8994 17.1666 96.544ZM23.0444 106.533C20.1816 104.767 18.4457 101.386 17.2884 98.2495C18.7502 96.2699 20.3948 94.3208 21.6739 92.2194C23.8971 93.4985 26.3335 94.7472 28.6176 93.864C29.2571 94.5035 29.8967 95.1431 30.5362 95.8131C30.7798 96.0567 30.993 96.3003 31.2367 96.544C29.5617 98.0363 23.4403 103.944 23.0444 106.533ZM60.4731 120.512C59.6813 120.207 58.9504 119.659 58.0672 119.964C57.2754 120.238 57.3668 120.725 56.6359 120.664C55.2349 120.542 53.7731 120.573 52.3722 120.542C51.7936 119.781 51.1845 119.05 50.5449 118.319C52.0676 118.167 53.5599 117.832 55.0218 117.405C57.3972 116.675 60.8691 114.817 62.4832 116.096C64.4323 117.771 66.5032 119.355 68.6655 120.725C67.295 120.877 65.8941 121.03 64.5236 121.09C63.1531 121.151 61.7522 121.03 60.4731 120.512ZM61.1127 114.878C59.529 114.847 58.0063 115.517 56.4836 116.096C54.4127 116.918 52.0981 117.375 49.8749 117.497C48.9004 116.309 47.9258 115.152 47.0731 113.842C45.6113 111.68 44.2408 109.487 42.7485 107.355C39.4899 102.696 35.6526 98.554 31.6935 94.534C27.6126 90.3921 23.4098 86.433 19.1766 82.4435C23.1053 80.6771 26.8512 78.2103 29.4703 74.8603C31.998 78.4539 34.6171 82.0171 37.7844 85.093C39.3985 86.6462 41.0126 87.8949 42.2612 89.783C43.3881 91.4885 44.0885 93.4376 45.3676 95.0517C45.3676 95.0822 45.3981 95.1126 45.4285 95.1735C49.7836 102.269 54.8999 109.213 61.1127 114.878ZM106.703 120.329C105.211 119.842 104.206 118.563 102.775 117.923C101.465 117.314 99.4856 117.771 98.3588 116.918C97.4451 116.218 97.0797 114.969 96.1356 114.269C92.5115 110.644 86.5119 109.7 81.761 108.482C76.0659 106.99 70.8886 104.645 65.8941 101.539C65.8027 101.478 65.6504 101.417 65.4982 101.356C61.8741 99.8331 58.4022 98.3408 54.8695 96.5744C51.3367 94.8081 47.9867 92.7676 44.7281 90.5444C44.3626 89.8135 43.9667 89.113 43.5403 88.443C43.5403 88.4126 43.5099 88.4126 43.5099 88.3821C43.6622 86.5853 44.2713 84.8798 45.3067 83.3571C46.5858 81.4994 48.2608 80.4335 50.0576 79.1848C53.0422 81.7126 55.9658 84.3621 58.5849 87.2553C59.8945 88.7171 61.1127 90.2399 62.3309 91.7321C63.3968 93.0417 64.6759 94.6253 66.4118 94.9908C66.4423 95.0212 66.4727 95.0517 66.5336 95.0822C68.6959 95.5999 70.7668 95.8131 72.8682 96.6658C74.8478 97.4576 76.7055 98.5235 78.5328 99.6504C82.2178 101.965 85.7505 104.523 89.2833 107.112C92.7856 109.67 96.3488 111.924 100.064 114.116C101.8 115.121 103.171 115.548 105.15 115.73C107.404 115.944 108.622 118.685 109.718 120.542C108.683 120.755 107.769 120.664 106.703 120.329Z" fill="white"/>
</svg>
