<?xml version="1.0" encoding="utf-8"?>
<!-- Generator: Adobe Illustrator 22.0.1, SVG Export Plug-In . SVG Version: 6.00 Build 0)  -->
<svg version="1.1" id="Capa_1" xmlns="http://www.w3.org/2000/svg" xmlns:xlink="http://www.w3.org/1999/xlink" x="0px" y="0px"
	 viewBox="0 0 313.7 71.6" style="enable-background:new 0 0 313.7 71.6;" xml:space="preserve">
<style type="text/css">
	.st0{fill:#FFFFFF;}
</style>
<title>LA</title>
<path class="st0" d="M35.9,44.9c-6,3.8-11.9,7.6-17.8,11.5c-2.9,2-5.8,4-8.7,6c-2.9,2-5.8,4.1-8.6,6.1l0,0C0,69-0.2,70.1,0.3,70.8
	c0.5,0.7,1.5,0.9,2.3,0.5c6-3.9,11.8-7.8,17.8-11.5s11.9-7.4,18-11c4.1-2.4,8.2-4.8,12.3-7.2c0-1.9,0.1-3.8,0.1-5.7
	C45.7,38.9,40.8,41.9,35.9,44.9z M313.6,52.4c-3.6-6-6.9-12.2-11.1-18.1c-2.1-3-4.4-5.8-6.9-8.4c-2.6-2.6-5.3-5-8.2-7.1
	c-2.9-2.3-6.1-4.2-9.5-5.7c-3.5-1.5-7.1-2.4-10.8-2.8c-1.9-0.2-3.7-0.2-5.5-0.3h-1.2l0.1,4.6l1.2-0.1c1.7,0,3.4,0,5,0.2
	c3.3,0.3,6.5,1,9.6,2.2c3.1,1.3,6,3,8.7,5c2.8,2,5.5,4.2,7.9,6.5c2.5,2.4,4.7,5,6.8,7.7c4.1,5.5,7.6,11.6,11.6,17.6
	c0.4,0.6,1.3,0.8,1.9,0.4C313.7,53.9,313.9,53.1,313.6,52.4L313.6,52.4z M257.2,3.5c-1.8-1.1-3.5-2.1-5.2-3.1
	c-0.4-0.2-0.9-0.4-1.4-0.4c-4.2,0.4-8.4,0.8-13,1.2c0.1,9.8,0,19.2,0.5,28.6c0.3,0.1,0.5,0.2,0.8,0.2c4-0.3,8-0.6,12-0.9
	c0.5,0,1-0.2,1.4-0.5c1.8-1.4,3.5-2.8,5.4-4.3C257.6,17.4,257.4,10.4,257.2,3.5z M250.8,22c-1.4,2.1-3.7,1.5-6.1,1.6V6.3
	c1.4-0.1,2.9-0.2,4.4-0.2c1,0.1,1.8,1,1.7,2c0,0.2,0,0.3,0,0.5L250.8,22z M212.2,9.5v20c6.5,5.8,14,5.5,19.9-0.8V8.6
	C225.7,3,218.4,3.3,212.2,9.5z M225.4,26.1c-2.1,2-3.7,2.2-6.3,0.3V11.9c2.4-1.9,3.7-2,6.3-0.2V26.1z M175.6,16.3h-0.4
	c-1-3.2-1.9-6.3-2.9-9.5h-3.1c-0.5,3.5-1,6.9-1.5,10.4h-0.5c-0.5-3.4-1-6.8-1.5-10.4l-6.4,0.4l3.2,27.7h4.7l0.2-0.5h0.1
	c1.1-3.1,2.1-6.3,3.2-9.5l3.2,10l1.8-0.3c0.8,0,1.6-0.1,2.4-0.4c1.6-9.2,3.2-18.5,4.9-27.9h-5.2C176.8,9.7,176.2,13,175.6,16.3z
	 M195.4,5.6c-0.6,0.1-1.2,0-1.9,0.2C193,5.8,192.5,6,192,6.3c-1.8,1.3-3.6,2.7-5.4,4.1v19.9c3.2,2.6,6.3,5,10.5,3.8
	c0.6-0.1,1.1-0.1,1.7-0.1c0.6,0,1.1-0.2,1.6-0.4c1.9-1.4,3.8-2.8,5.5-4.1V9.2C202.6,6.8,199.5,4.5,195.4,5.6z M199.2,26.8
	c-2.4,2-3.9,2-6.2,0.3V12.9c2.1-2.2,3.7-2.3,6.2-0.5V26.8z M84,7.6c-1,0.3-2.2,0.1-3,0.7c-1.9,1.2-3.6,2.8-5.5,4.3
	c-0.1,6.7-0.2,13.4-0.4,20.1c1.6,1,3.1,1.9,4.6,2.9c1,0.7,2.2,0.8,3.4,0.5c1.3-0.2,2.7-0.4,4-0.4c0.5,0,1.1-0.1,1.6-0.4
	c1.7-1.3,3.3-2.8,5.2-4.4V10.7C91,8.3,87.9,6.4,84,7.6z M87.8,14.2c-0.1,4.8-0.2,9.6-0.4,14.3c-2.2,2.2-3.5,2.4-5.9,0.5
	c0.1-4.4,0.2-9,0.5-13.6c0.1-1.7,2.4-2.8,4.2-2.2C86.8,13.5,87.3,13.8,87.8,14.2z M66.1,22.1l-5.7,0.5V11.9l-6.1,0.6
	c-0.2,9.4-0.3,18.7-0.5,28c2,0.4,4.1,0.3,6-0.4c0.1-3.7,0.2-7.3,0.3-11.1l5.9-0.5v10.1l2,1.1l4.3-1V35c0.1-7.8,0.3-15.7,0.4-23.9
	l-6.2,0.6C66.3,15.2,66.2,18.6,66.1,22.1z M145.6,15.7h-0.4c-1.2-3.6-2.3-7.3-3.4-10.8l-6.6,0c0.3,1,0.4,1.8,0.6,2.5
	c1,3.1,2,6.2,3.1,9.3c1.8,4.8,3.3,9.6,2.7,14.9c0,0.3,0,0.5,0.1,0.8l1.1,1.3h5.4c1-0.8,1.5-2.1,1.2-3.4c-0.2-3.3,0.2-6.7,1.3-9.9
	c0.5-1.4,1-2.8,1.4-4.3c1.2-3.9,2.4-7.7,3.7-12l-6.4,0.4C148.1,8.3,146.8,12,145.6,15.7z M127.8,5.4h-6.2v27.7l17.9-0.1v-5.5
	l-11.6,0.1V5.4z M108.1,6h-6.3v27.5l17.9-0.1v-5.3l-11.6,0.1L108.1,6z"/>
</svg>
