<svg xmlns="http://www.w3.org/2000/svg" viewBox="0 0 700 97.12"><defs><style>.cls-1,.cls-2{fill:#fff;}.cls-2{fill-rule:evenodd;}.cls-3{fill:#a103ca;}</style></defs><g id="Layer_2" data-name="Layer 2"><g id="Layer_1-2" data-name="Layer 1"><polyline class="cls-1" points="17.57 2.85 39.67 57.73 40.65 57.73 60.68 2.85 78.25 2.85 98.38 57.44 99.76 57.44 121.36 2.85 138.93 2.85 111.44 71.08 86.6 71.08 69.52 24.74 52.43 71.08 27.59 71.08 0 2.85"/><polygon class="cls-1" points="192.49 2.85 165.69 2.85 129.06 71.08 148.9 71.08 178.94 15.61 179.73 15.61 209.18 71.08 229.02 71.08 192.49 2.85"/><path class="cls-1" d="M233.51,2.84l23.05,30.84,23-30.84h19.32L265,48.07v23H248v-23L213.21,2.84Z"/><path class="cls-1" d="M355.28,2.84q13.85,0,19.83,5t6,16.83v4.72q0,11.91-5.45,16.68t-19.29,4.77H324.94V71.08H308V2.84Zm8.84,24.8V26.26c0-2.64-.63-4.48-1.87-5.54s-3.44-1.58-6.58-1.58H324.94V34.56h31.12q4.43,0,6.24-1.53C363.51,32,364.12,30.21,364.12,27.64Z"/><path class="cls-1" d="M493,71.08V2.84h17V71.08Z"/><path class="cls-1" d="M526.49,2.84h25.37l41.59,46.64V2.84h17V71.08h-20.3L543.48,20V71.08h-17Z"/><path class="cls-1" d="M700,2.84V16.69H670.15V71.08h-17V16.69H623.32V2.84Z"/><path class="cls-2" d="M465.12,11.26A38.54,38.54,0,0,1,418.49,71.8l6.83-12.46L416,70h0L399.78,88.77l12-22.21c-.33-.3-.65-.62-1-.94A38.21,38.21,0,0,1,400.06,45l9-16.2-4,5.42h0L371.46,80l32.6-59.77.13-.25a38.47,38.47,0,0,1,60.93-8.75ZM454.87,26.9A21.08,21.08,0,0,0,452.4,24a20.46,20.46,0,1,0-5.65,32.94l-5.42,10,11.07-14a20.14,20.14,0,0,0,4.38-22l2.1-4.08-9.93,11Z"/><path class="cls-3" d="M506.81,79.64c2.11,0,3.56.33,4.35,1a4.21,4.21,0,0,1,1.18,3.4,8.49,8.49,0,0,1-.29,2.77,2.14,2.14,0,0,1-1.17,1.07,2.57,2.57,0,0,1,1.74,1A5.63,5.63,0,0,1,513.3,92c0,1.88-.37,3.2-1.11,4s-2.05,1.15-3.92,1.15H492.92V79.64Zm-9.54,6.61h8.86a2.4,2.4,0,0,0,1.39-.33,1.39,1.39,0,0,0,.47-1.21,1.44,1.44,0,0,0-.48-1.21,2.33,2.33,0,0,0-1.41-.37h-8.83Zm0,7.38h9.55a2.29,2.29,0,0,0,1.59-.48,2,2,0,0,0,.53-1.57,1.65,1.65,0,0,0-.55-1.43,3.06,3.06,0,0,0-1.74-.4h-9.38Z"/><path class="cls-3" d="M516.29,79.64h18.57v3.49H520.64v3.23h13.77v3.49H520.64v3.78h14.22v3.49H516.29Z"/><path class="cls-3" d="M556.68,79.64v3.54H549V97.12h-4.36V83.18H537V79.64Z"/><path class="cls-3" d="M566.84,79.64h6.87l9.36,17.48H578l-2.22-4.2h-11l-2.21,4.2h-5.08Zm3.6,3.27h-.2l-3.6,6.51h7.25Z"/><path class="cls-3" d="M604.41,79.64h8a8.58,8.58,0,0,1,5.06,1.21,4.32,4.32,0,0,1,1.66,3.74h-4.68a1.32,1.32,0,0,0-.44-1.14,3.37,3.37,0,0,0-1.78-.32h-7.34a3,3,0,0,0-1.57.34,1.42,1.42,0,0,0-.54,1.3,1.28,1.28,0,0,0,.58,1.26,3.6,3.6,0,0,0,1.53.22l8,.31c2.27,0,3.81.29,4.63.88,1,.74,1.56,2.19,1.56,4.38a5.26,5.26,0,0,1-1.36,4.07c-.9.82-2.49,1.23-4.75,1.23h-9c-2.25,0-3.83-.39-4.74-1.18a4.7,4.7,0,0,1-1.37-3.77h4.42a1.21,1.21,0,0,0,.6,1,2.65,2.65,0,0,0,1.54.41h7.27a4.66,4.66,0,0,0,2.18-.38,1.43,1.43,0,0,0,.67-1.38,1.69,1.69,0,0,0-.58-1.44,4.33,4.33,0,0,0-2.44-.5l-7-.28q-3.92,0-5.2-.83-1.5-1-1.5-4.11c0-1.85.49-3.16,1.49-3.93S602,79.64,604.41,79.64Z"/><path class="cls-3" d="M622.57,97.12V79.64h4.36V97.12Z"/><path class="cls-3" d="M649.19,79.64v3.54h-7.64V97.12h-4.36V83.18h-7.65V79.64Z"/><path class="cls-3" d="M651.56,79.64h18.57v3.49H655.91v3.23h13.77v3.49H655.91v3.78h14.22v3.49H651.56Z"/></g></g></svg>